<svg xmlns="http://www.w3.org/2000/svg" version="1.1" xmlns:xlink="http://www.w3.org/1999/xlink" xmlns:svgjs="http://svgjs.dev/svgjs" viewBox="0 0 800 800"><defs><linearGradient x1="50%" y1="0%" x2="50%" y2="100%" id="ffflurry-grad" gradientTransform="rotate(270)"><stop stop-color="hsl(238, 82%, 13%)" stop-opacity="1" offset="0%"></stop><stop stop-color="hsl(225, 78%, 57%)" stop-opacity="1" offset="45%"></stop><stop stop-color="hsl(275, 91%, 52%)" stop-opacity="1" offset="100%"></stop></linearGradient></defs><rect width="100%" height="100%" fill="hsl(238, 82%, 13%)"></rect><g fill="url(#ffflurry-grad)"><rect width="506" height="4" x="-173" y="711" rx="2" transform="rotate(38, 80, 713)" opacity="0.14"></rect><rect width="110" height="4" x="397" y="757" rx="2" transform="rotate(38, 452, 759)" opacity="0.55"></rect><rect width="855" height="4" x="80.5" y="90" rx="2" transform="rotate(38, 508, 92)" opacity="0.88"></rect><rect width="168" height="4" x="-45" y="110" rx="2" transform="rotate(38, 39, 112)" opacity="0.54"></rect><rect width="251" height="4" x="430.5" y="770" rx="2" transform="rotate(38, 556, 772)" opacity="0.35"></rect><rect width="558" height="4" x="473" y="68" rx="2" transform="rotate(38, 752, 70)" opacity="0.99"></rect><rect width="357" height="4" x="58.5" y="324" rx="2" transform="rotate(38, 237, 326)" opacity="0.23"></rect><rect width="442" height="4" x="-177" y="539" rx="2" transform="rotate(38, 44, 541)" opacity="0.76"></rect><rect width="351" height="4" x="570.5" y="430" rx="2" transform="rotate(38, 746, 432)" opacity="0.56"></rect><rect width="303" height="4" x="405.5" y="709" rx="2" transform="rotate(38, 557, 711)" opacity="0.89"></rect><rect width="450" height="4" x="1" y="188" rx="2" transform="rotate(38, 226, 190)" opacity="0.30"></rect><rect width="53" height="4" x="290.5" y="512" rx="2" transform="rotate(38, 317, 514)" opacity="0.64"></rect><rect width="447" height="4" x="160.5" y="709" rx="2" transform="rotate(38, 384, 711)" opacity="0.29"></rect><rect width="284" height="4" x="194" y="619" rx="2" transform="rotate(38, 336, 621)" opacity="0.58"></rect><rect width="200" height="4" x="327" y="366" rx="2" transform="rotate(38, 427, 368)" opacity="0.38"></rect><rect width="499" height="4" x="13.5" y="751" rx="2" transform="rotate(38, 263, 753)" opacity="0.98"></rect><rect width="476" height="4" x="465" y="290" rx="2" transform="rotate(38, 703, 292)" opacity="0.60"></rect><rect width="493" height="4" x="194.5" y="206" rx="2" transform="rotate(38, 441, 208)" opacity="0.95"></rect><rect width="185" height="4" x="510.5" y="557" rx="2" transform="rotate(38, 603, 559)" opacity="0.94"></rect><rect width="179" height="4" x="7.5" y="262" rx="2" transform="rotate(38, 97, 264)" opacity="0.09"></rect><rect width="245" height="4" x="-62.5" y="34" rx="2" transform="rotate(38, 60, 36)" opacity="0.76"></rect><rect width="576" height="4" x="143" y="566" rx="2" transform="rotate(38, 431, 568)" opacity="0.68"></rect><rect width="202" height="4" x="570" y="689" rx="2" transform="rotate(38, 671, 691)" opacity="0.92"></rect><rect width="520" height="4" x="54" y="390" rx="2" transform="rotate(38, 314, 392)" opacity="0.13"></rect><rect width="124" height="4" x="656" y="632" rx="2" transform="rotate(38, 718, 634)" opacity="0.71"></rect><rect width="389" height="4" x="-88.5" y="168" rx="2" transform="rotate(38, 106, 170)" opacity="0.96"></rect><rect width="47" height="4" x="577.5" y="639" rx="2" transform="rotate(38, 601, 641)" opacity="0.76"></rect><rect width="179" height="4" x="543.5" y="59" rx="2" transform="rotate(38, 633, 61)" opacity="0.54"></rect><rect width="353" height="4" x="447.5" y="215" rx="2" transform="rotate(38, 624, 217)" opacity="0.48"></rect><rect width="223" height="4" x="538.5" y="352" rx="2" transform="rotate(38, 650, 354)" opacity="0.70"></rect><rect width="96" height="4" x="441" y="651" rx="2" transform="rotate(38, 489, 653)" opacity="0.75"></rect><rect width="68" height="4" x="528" y="258" rx="2" transform="rotate(38, 562, 260)" opacity="0.41"></rect><rect width="67" height="4" x="516.5" y="365" rx="2" transform="rotate(38, 550, 367)" opacity="0.60"></rect><rect width="640" height="4" x="-2" y="201" rx="2" transform="rotate(38, 318, 203)" opacity="0.61"></rect><rect width="131" height="4" x="684.5" y="521" rx="2" transform="rotate(38, 750, 523)" opacity="0.53"></rect><rect width="138" height="4" x="346" y="464" rx="2" transform="rotate(38, 415, 466)" opacity="0.90"></rect><rect width="422" height="4" x="309" y="450" rx="2" transform="rotate(38, 520, 452)" opacity="0.54"></rect><rect width="357" height="4" x="-15.5" y="404" rx="2" transform="rotate(38, 163, 406)" opacity="0.91"></rect><rect width="327" height="4" x="69.5" y="468" rx="2" transform="rotate(38, 233, 470)" opacity="0.67"></rect><rect width="439" height="4" x="-38.5" y="32" rx="2" transform="rotate(38, 181, 34)" opacity="0.50"></rect><rect width="395" height="4" x="559.5" y="740" rx="2" transform="rotate(38, 757, 742)" opacity="0.49"></rect><rect width="366" height="4" x="582" y="324" rx="2" transform="rotate(38, 765, 326)" opacity="0.78"></rect><rect width="86" height="4" x="110" y="211" rx="2" transform="rotate(38, 153, 213)" opacity="0.48"></rect><rect width="357" height="4" x="-144.5" y="305" rx="2" transform="rotate(38, 34, 307)" opacity="0.26"></rect><rect width="710" height="4" x="5" y="62" rx="2" transform="rotate(38, 360, 64)" opacity="0.20"></rect><rect width="585" height="4" x="57.5" y="294" rx="2" transform="rotate(38, 350, 296)" opacity="0.21"></rect><rect width="62" height="4" x="693" y="182" rx="2" transform="rotate(38, 724, 184)" opacity="0.68"></rect><rect width="148" height="4" x="697" y="595" rx="2" transform="rotate(38, 771, 597)" opacity="0.47"></rect><rect width="667" height="4" x="-190.5" y="534" rx="2" transform="rotate(38, 143, 536)" opacity="0.13"></rect><rect width="201" height="4" x="525.5" y="411" rx="2" transform="rotate(38, 626, 413)" opacity="0.24"></rect><rect width="451" height="4" x="265.5" y="303" rx="2" transform="rotate(38, 491, 305)" opacity="0.31"></rect><rect width="314" height="4" x="-120" y="204" rx="2" transform="rotate(38, 37, 206)" opacity="0.89"></rect><rect width="408" height="4" x="-65" y="108" rx="2" transform="rotate(38, 139, 110)" opacity="0.69"></rect><rect width="625" height="4" x="-100.5" y="639" rx="2" transform="rotate(38, 212, 641)" opacity="0.89"></rect><rect width="526" height="4" x="-207" y="407" rx="2" transform="rotate(38, 56, 409)" opacity="0.18"></rect><rect width="247" height="4" x="3.5" y="330" rx="2" transform="rotate(38, 127, 332)" opacity="0.87"></rect><rect width="399" height="4" x="423.5" y="469" rx="2" transform="rotate(38, 623, 471)" opacity="0.78"></rect><rect width="607" height="4" x="-57.5" y="97" rx="2" transform="rotate(38, 246, 99)" opacity="0.35"></rect><rect width="336" height="4" x="23" y="266" rx="2" transform="rotate(38, 191, 268)" opacity="0.90"></rect><rect width="397" height="4" x="478.5" y="520" rx="2" transform="rotate(38, 677, 522)" opacity="0.79"></rect><rect width="52" height="4" x="493" y="548" rx="2" transform="rotate(38, 519, 550)" opacity="0.09"></rect><rect width="226" height="4" x="543" y="761" rx="2" transform="rotate(38, 656, 763)" opacity="0.36"></rect></g></svg>