<svg xmlns="http://www.w3.org/2000/svg" version="1.1" xmlns:xlink="http://www.w3.org/1999/xlink" xmlns:svgjs="http://svgjs.dev/svgjs" viewBox="0 0 800 800"><defs><filter id="uuunion-blur" x="-100%" y="-100%" width="400%" height="400%" color-interpolation-filters="sRGB">
        <feGaussianBlur in="SourceGraphic" stdDeviation="4 9" result="blur"></feGaussianBlur>
        <feDropShadow stdDeviation="12.307692307692308" in="blur" dx="10" dy="10" flood-color="hsl(265, 55%, 30%)" flood-opacity="0.25" x="0%" y="0%" width="100%" height="100%"></feDropShadow>
      </filter><filter id="uuunion-blur2" x="-100%" y="-100%" width="400%" height="400%" color-interpolation-filters="sRGB">
        <feGaussianBlur in="SourceGraphic" stdDeviation="4 9" result="blur"></feGaussianBlur>
        <feDropShadow stdDeviation="12.307692307692308" in="blur" dx="-10" dy="-10" flood-color="hsl(265, 55%, 30%)" flood-opacity="0.25" x="0%" y="0%" width="100%" height="100%"></feDropShadow>
      </filter><linearGradient gradientTransform="rotate(142, 0.5, 0.5)" x1="50%" y1="0%" x2="50%" y2="100%" id="uuunion-grad"><stop stop-color="hsl(265, 55%, 60%)" offset="10%"></stop><stop stop-color="hsl(265, 55%, 30%)" offset="90%"></stop></linearGradient><linearGradient gradientTransform="rotate(280, 0.5, 0.5)" x1="50%" y1="0%" x2="50%" y2="100%" id="uuunion-grad2"><stop stop-color="hsl(265, 55%, 60%)" offset="25%"></stop><stop stop-color="hsl(265, 55%, 30%)" offset="100%"></stop></linearGradient><linearGradient gradientTransform="rotate(133, 0.5, 0.5)" x1="50%" y1="0%" x2="50%" y2="100%" id="uuunion-grad3"><stop stop-color="hsl(265, 55%, 60%)" offset="0%"></stop><stop stop-color="hsl(265, 55%, 30%)" offset="75%"></stop></linearGradient></defs><path d="M-76.67 -82.95Q-62.47 -80.61 -48.27 -78.17 -34.08 -76 -19.88 -74.42 -5.68 -73.65 8.51 -73.8 22.71 -74.87 36.91 -76.68 51.11 -78.97 65.31 -81.42 79.51 -83.65 93.71 -85.36 107.91 -86.28 122.11 -86.28 136.31 -85.36 150.51 -83.66 164.7 -81.42 178.9 -78.98 193.1 -76.68 207.3 -74.87 221.5 -73.81 235.7 -73.65 249.9 -74.41 264.1 -76 278.3 -78.17 292.5 -80.6 306.7 -82.95 320.9 -84.86 335.1 -86.07 349.3 -86.38 363.49 -85.77 377.69 -84.31 391.89 -82.22 406.09 -79.8 420.29 -77.42 434.49 -75.41 448.69 -74.07 462.89 -73.6 477.09 -74.06 491.29 -75.39 505.49 -77.39 519.69 -79.77 533.89 -82.19 548.09 -84.28 562.28 -85.75 576.48 -86.38 590.68 -86.07 604.88 -84.88 619.08 -82.97 633.28 -80.63 647.48 -78.19 661.68 -76.02 675.88 -74.43 690.08 -73.65 704.28 -73.8 718.48 -74.85 732.68 -76.66 746.88 -78.95 761.07 -81.4 775.27 -83.64 789.47 -85.35 803.67 -86.27 817.87 -86.28 832.07 -85.37 837.08 -70.94 844.43 -56.51 853.73 -42.07 864.47 -27.64 876.05 -13.21 887.85 1.21 899.22 15.65 909.54 30.08 918.25 44.51 924.86 58.95 929.02 73.38 930.49 87.81 929.21 102.24 925.24 116.68 918.79 131.11 910.22 145.54 900 159.97 888.68 174.41 876.89 188.84 865.27 203.27 854.45 217.71 845.03 232.14 837.53 246.57 832.34 261 829.76 275.44 829.93 289.87 832.84 304.3 838.32 318.74 846.08 333.17 855.7 347.6 866.64 362.03 878.32 376.47 890.09 390.9 901.3 405.33 911.35 419.76 919.69 434.2 925.85 448.63 929.51 463.06 930.46 477.5 928.65 491.93 924.18 506.36 917.3 520.79 908.37 535.23 897.89 549.66 886.44 564.09 874.63 578.53 863.11 592.96 852.52 607.39 843.43 621.82 836.34 636.26 831.64 650.69 829.58 665.12 830.28 679.56 833.69 693.99 839.64 708.42 847.8 722.85 857.71 737.29 868.85 751.72 880.59 766.15 892.3 780.58 903.34 795.02 913.1 809.45 916.01 827.58 895.19 831.35 879.41 838.53 863.63 851.77 847.85 869.14 832.07 888.09 816.29 905.86 800.51 919.85 784.73 928.02 768.94 929.17 753.16 923.13 737.38 910.79 721.6 893.96 705.82 875.08 690.04 856.92 674.26 842.13 658.48 832.88 642.69 830.51 626.91 835.37 611.13 846.75 595.35 862.99 579.57 881.71 563.79 900.18 548.01 915.71 532.22 926.01 516.44 929.59 500.66 925.93 484.88 915.55 469.1 899.98 453.32 881.49 437.54 862.78 421.76 846.58 405.97 835.27 390.19 830.49 374.41 832.95 358.63 842.28 342.85 857.12 327.07 875.3 311.29 894.17 295.51 910.97 279.72 923.24 263.94 929.2 248.16 927.96 232.38 919.71 216.6 905.67 200.82 887.87 185.04 868.92 169.25 851.59 153.47 838.41 137.69 831.3 121.91 831.31 106.13 838.44 90.35 851.63 74.57 868.97 58.79 887.92 43 905.72 27.22 919.75 11.44 927.97 -4.33 929.19 -20.11 923.21 -35.89 910.93 -51.67 894.12 -67.45 875.25 -83.24 857.07 -82.84 842.38 -82.29 827.69 -81.61 813.01 -80.85 798.32 -80.04 783.63 -79.22 768.94 -78.45 754.25 -77.76 739.57 -77.2 724.88 -76.79 710.19 -76.55 695.5 -76.5 680.81 -76.64 666.13 -76.97 651.44 -77.46 636.75 -78.09 622.06 -78.83 607.37 -79.62 592.69 -80.44 578 -81.24 563.31 -81.96 548.62 -82.58 533.93 -83.06 519.25 -83.37 504.56 -83.49 489.87 -83.43 475.18 -83.17 460.49 -82.75 445.81 -82.17 431.12 -81.47 416.43 -80.69 401.74 -79.88 387.05 -79.07 372.37 -78.31 357.68 -77.64 342.99 -77.11 328.3 -76.73 313.61 -76.53 298.93 -76.51 284.24 -76.69 269.55 -77.05 254.86 -77.57 240.17 -78.22 225.49 -78.97 210.8 -79.78 196.11 -80.6 181.42 -81.38 166.73 -82.09 152.04 -82.68 137.36 -83.13 122.67 -83.41 107.98 -83.49 93.29 -83.39 78.6 -83.1 63.92 -82.65 49.23 -82.04 34.54 -81.33 19.85 -80.54 5.16 -79.72 -9.51 -78.92 -24.2 -78.17 -38.89 -77.53 -53.58 -77.02 -68.27 -76.67 -82.95" fill="url(#uuunion-grad)"></path><path d="M-76.67 -82.95Q-77.02 -68.27 -77.53 -53.58 -78.17 -38.89 -78.92 -24.2 -79.72 -9.51 -80.54 5.16 -81.33 19.85 -82.04 34.54 -82.65 49.23 -83.1 63.92 -83.39 78.6 -83.49 93.29 -83.41 107.98 -83.13 122.67 -82.68 137.36 -82.09 152.04 -81.38 166.73 -80.6 181.42 -79.78 196.11 -78.97 210.8 -78.22 225.49 -77.57 240.17 -77.05 254.86 -76.69 269.55 -76.51 284.24 -76.53 298.93 -76.73 313.61 -77.11 328.3 -77.64 342.99 -78.31 357.68 -79.07 372.37 -79.88 387.05 -69.9 393.77 -59.92 400.9 -49.93 407.97 -39.95 414.51 -29.97 420.11 -19.99 424.39 -1.28 427.75 1.95 427.96 14.22 419.58 26.35 408.65 38.36 395.68 50.25 381.41 62.03 366.65 73.71 352.28 85.31 339.12 96.85 327.82 108.33 318.85 119.79 312.45 131.25 308.57 142.71 306.91 154.21 306.97 165.78 308.06 177.42 309.43 189.16 310.3 201.02 309.97 213.02 307.87 225.18 303.62 237.51 297.08 250.03 288.32 262.75 277.67 275.67 265.6 288.81 252.75 302.17 239.79 315.74 227.4 329.53 216.2 343.53 206.63 357.73 199 372.11 193.39 386.67 189.68 401.38 187.56 416.22 186.56 431.17 186.13 446.21 185.66 461.3 184.57 476.42 182.36 491.54 178.66 506.61 173.26 521.62 166.12 536.52 157.4 551.29 147.4 565.88 136.53 580.28 125.29 594.44 114.2 608.35 103.73 621.96 94.3 635.27 86.19 648.24 79.53 660.86 74.3 673.12 70.36 685 67.41 696.5 65.09 707.61 62.97 718.33 60.62 728.68 57.66 738.66 53.79 748.29 48.8 757.58 42.63 766.57 35.31 775.26 27.01 783.71 17.99 791.94 8.56 800 -0.92 787.57 -18.35 776.07 -35.77 766.35 -53.2 759.13 -70.63 754.95 -88.05 754.11 -105.48 756.68 -122.91 762.47 -140.34 748.25 -138.94 734.02 -137.69 719.8 -136.78 705.58 -136.33 691.36 -136.41 677.14 -137.01 662.91 -138.03 648.69 -139.35 634.47 -140.75 620.25 -142.05 606.02 -143.05 591.8 -143.61 577.58 -143.65 563.36 -143.16 549.14 -142.21 534.91 -140.95 520.69 -139.54 506.47 -138.21 492.25 -137.13 478.02 -136.46 463.8 -136.31 449.58 -136.68 435.36 -137.54 421.14 -138.75 406.91 -140.14 392.69 -141.5 378.47 -142.66 364.25 -143.42 350.02 -143.69 335.8 -143.43 321.58 -142.68 307.36 -141.53 293.14 -140.16 278.91 -138.77 264.69 -137.56 250.47 -136.7 236.25 -136.31 222.02 -136.45 207.8 -137.11 193.58 -138.18 179.36 -139.52 165.14 -140.92 150.91 -142.19 136.69 -143.14 122.47 -143.64 108.25 -143.61 94.02 -143.06 79.8 -142.07 65.58 -140.78 51.36 -139.37 37.13 -138.06 22.91 -137.02 8.69 -136.42 -5.52 -136.32 -19.74 -136.76 -33.97 -137.67 -48.19 -138.91 -62.41 -140.31 -76.63 -141.66 -90.86 -142.77 -105.08 -143.48 -119.3 -143.69 -128.18 -130.91 -111.47 -114.99 -102.69 -107.5 -93.97 -99.67 -85.31 -91.48 -76.67 -82.95" fill="url(#uuunion-grad2)" filter="url(#uuunion-blur)"></path><path d="M798.47 397.41Q808.45 390.42 818.43 384.06 828.41 378.74 838.39 374.82 848.38 372.53 858.36 372.05 868.34 373.39 878.32 376.47 890.09 390.9 901.3 405.33 911.35 419.76 919.69 434.2 925.85 448.63 929.51 463.06 930.46 477.5 928.65 491.93 924.18 506.36 917.3 520.79 908.37 535.23 897.89 549.66 886.44 564.09 874.63 578.53 863.11 592.96 852.52 607.39 843.43 621.82 836.34 636.26 831.64 650.69 829.58 665.12 830.28 679.56 833.69 693.99 839.64 708.42 847.8 722.85 857.71 737.29 868.85 751.72 880.59 766.15 892.3 780.58 903.34 795.02 913.1 809.45 916.66 827.74 897.79 830.83 883.31 836.14 868.83 846.85 854.34 861.65 839.86 878.71 825.38 895.93 810.9 911.18 796.41 922.59 781.93 928.75 767.45 928.9 752.97 923.01 738.48 911.83 724 896.72 709.52 879.54 695.04 862.43 680.55 847.47 666.07 836.53 651.59 830.95 637.1 831.42 622.62 837.87 608.14 849.52 593.66 864.92 579.17 882.19 564.69 899.18 550.21 913.81 535.73 924.27 521.24 929.27 506.76 928.19 492.28 921.18 477.8 909.08 463.31 893.4 448.83 876.07 434.35 859.22 419.87 844.93 405.38 834.96 390.9 830.55 376.42 832.24 361.93 839.81 347.45 852.34 332.97 868.27 318.49 885.66 304 902.34 289.52 916.27 275.04 925.73 260.56 929.55 246.07 927.25 231.59 919.14 217.11 906.19 202.63 890.02 188.14 872.61 173.66 856.11 159.18 842.55 144.7 833.62 130.21 830.4 115.73 833.29 101.25 841.95 86.76 855.29 72.28 871.68 57.8 889.1 43.32 905.39 28.83 918.55 7.08 923.05 -0.27 908.68 -0.38 898.23 -0.49 887.78 -0.63 877.33 -0.77 866.88 -0.73 851.21 -0.06 846 12.22 837.14 24.37 823.91 36.4 807.09 48.31 787.77 60.12 767.33 71.83 747.21 83.46 728.81 95.03 713.34 106.55 701.7 118.06 694.39 129.56 691.46 141.07 692.52 152.63 696.77 164.25 703.1 175.96 710.22 187.77 716.76 199.7 721.43 211.77 723.14 224.01 721.14 236.42 715.04 249.02 704.89 261.83 691.13 274.83 674.58 288.06 656.31 301.49 637.58 315.15 619.65 329.01 603.7 343.08 590.67 357.34 581.22 371.79 575.61 386.4 573.73 401.16 575.07 416.05 578.82 431.04 583.92 446.1 589.22 461.21 593.53 476.34 595.8 491.45 595.2 506.52 591.2 521.51 583.63 536.38 572.68 551.11 558.88 565.66 543.03 580.01 526.16 594.11 509.34 607.95 493.65 621.49 480.03 634.72 469.18 647.61 461.53 660.14 457.16 672.31 455.82 684.1 456.97 695.52 459.81 706.54 463.39 717.19 466.7 727.46 468.78 737.37 468.81 746.93 466.19 756.17 460.6 765.11 452.03 773.77 440.77 782.19 427.39 794.44 405.02 798.47 397.41" fill="url(#uuunion-grad3)" filter="url(#uuunion-blur2)"></path></svg>